<svg xmlns="http://www.w3.org/2000/svg" width="14.183" height="16" viewBox="0 0 14.183 16">
  <path id="Path_3" data-name="Path 3" d="M14.988,11.806l-1.56-2.879v-3a5.429,5.429,0,0,0-10.857,0v3l-1.56,2.879a.857.857,0,0,0,.754,1.265h3.1c-.009.1-.013.19-.013.286a3.143,3.143,0,1,0,6.286,0c0-.1,0-.191-.013-.286h3.1a.857.857,0,0,0,.754-1.265ZM10,13.357a2,2,0,1,1-3.979-.286H9.979A2.005,2.005,0,0,1,10,13.357ZM2.245,11.929,3.714,9.216V5.929a4.286,4.286,0,1,1,8.571,0V9.216l1.469,2.712Z" transform="translate(-0.908 -0.5)" fill="#fff"/>
</svg>
